<svg xmlns="http://www.w3.org/2000/svg" width="2642" height="645" fill="none"><path stroke="url(#a)" d="M67 1H1v64.285M67 1v64.285M67 1h66M67 65.285H1m66 0h66m-66 0v64.286M1 65.285v64.286M133 1v64.285M133 1h66m-66 64.285h66m-66 0v64.286M199 1v64.285M199 1h66m-66 64.285h66m-66 0v64.286M265 1v64.285M265 1h66m-66 64.285h66m-66 0v64.286M331 1v64.285M331 1h66m-66 64.285h66m-66 0v64.286M397 1v64.285M397 1h66m-66 64.285h66m-66 0v64.286M463 1v64.285M463 1h66m-66 64.285h66m-66 0v64.286M529 1v64.285M529 1h66m-66 64.285h66m-66 0v64.286M595 1v64.285M595 1h66m-66 64.285h66m-66 0v64.286M661 1v64.285M661 1h66m-66 64.285h66m-66 0v64.286M727 1v64.285M727 1h66m-66 64.285h66m-66 0v64.286M793 1v64.285M793 1h66m-66 64.285h66m-66 0v64.286M859 1v64.285M859 1h66m-66 64.285h66m-66 0v64.286M925 1v64.285M925 1h66m-66 64.285h66m-66 0v64.286M991 1v64.285M991 1h66m-66 64.285h66m-66 0v64.286M1057 1v64.285M1057 1h66m-66 64.285h66m-66 0v64.286M1123 1v64.285M1123 1h66m-66 64.285h66m-66 0v64.286M1189 1v64.285M1189 1h66m-66 64.285h66m-66 0v64.286M1255 1v64.285M1255 1h66m-66 64.285h66m-66 0v64.286M1321 1v64.285M1321 1h66m-66 64.285v64.286m0-64.286h66M67 129.571H1m66 0h66m-66 0v64.285M1 129.571v64.285m132-64.285h66m-66 0v64.285m66-64.285h66m-66 0v64.285m66-64.285h66m-66 0v64.285m66-64.285h66m-66 0v64.285m66-64.285h66m-66 0v64.285m66-64.285h66m-66 0v64.285m66-64.285h66m-66 0v64.285m66-64.285h66m-66 0v64.285m66-64.285h66m-66 0v64.285m66-64.285h66m-66 0v64.285m66-64.285h66m-66 0v64.285m66-64.285h66m-66 0v64.285m66-64.285h66m-66 0v64.285m66-64.285h66m-66 0v64.285m66-64.285h66m-66 0v64.285m66-64.285h66m-66 0v64.285m66-64.285h66m-66 0v64.285m66-64.285h66m-66 0v64.285m66-64.285v64.285m0-64.285h66M67 193.856H1m66 0h66m-66 0v64.286M1 193.856v64.286m132-64.286h66m-66 0v64.286m66-64.286h66m-66 0v64.286m66-64.286h66m-66 0v64.286m66-64.286h66m-66 0v64.286m66-64.286h66m-66 0v64.286m66-64.286h66m-66 0v64.286m66-64.286h66m-66 0v64.286m66-64.286h66m-66 0v64.286m66-64.286h66m-66 0v64.286m66-64.286h66m-66 0v64.286m66-64.286h66m-66 0v64.286m66-64.286h66m-66 0v64.286m66-64.286h66m-66 0v64.286m66-64.286h66m-66 0v64.286m66-64.286h66m-66 0v64.286m66-64.286h66m-66 0v64.286m66-64.286h66m-66 0v64.286m66-64.286h66m-66 0v64.286m66-64.286v64.286m0-64.286h66M67 258.142H1m66 0h66m-66 0v64.285M1 258.142v64.285m132-64.285h66m-66 0v64.285m66-64.285h66m-66 0v64.285m66-64.285h66m-66 0v64.285m66-64.285h66m-66 0v64.285m66-64.285h66m-66 0v64.285m66-64.285h66m-66 0v64.285m66-64.285h66m-66 0v64.285m66-64.285h66m-66 0v64.285m66-64.285h66m-66 0v64.285m66-64.285h66m-66 0v64.285m66-64.285h66m-66 0v64.285m66-64.285h66m-66 0v64.285m66-64.285h66m-66 0v64.285m66-64.285h66m-66 0v64.285m66-64.285h66m-66 0v64.285m66-64.285h66m-66 0v64.285m66-64.285h66m-66 0v64.285m66-64.285h66m-66 0v64.285m66-64.285v64.285m0-64.285h66M67 322.427H1m66 0h66m-66 0v64.285M1 322.427v64.285m132-64.285h66m-66 0v64.285m66-64.285h66m-66 0v64.285m66-64.285h66m-66 0v64.285m66-64.285h66m-66 0v64.285m66-64.285h66m-66 0v64.285m66-64.285h66m-66 0v64.285m66-64.285h66m-66 0v64.285m66-64.285h66m-66 0v64.285m66-64.285h66m-66 0v64.285m66-64.285h66m-66 0v64.285m66-64.285h66m-66 0v64.285m66-64.285h66m-66 0v64.285m66-64.285h66m-66 0v64.285m66-64.285h66m-66 0v64.285m66-64.285h66m-66 0v64.285m66-64.285h66m-66 0v64.285m66-64.285h66m-66 0v64.285m66-64.285h66m-66 0v64.285m66-64.285v64.285m0-64.285h66M67 386.712H1m66 0h66m-66 0v64.286M1 386.712v64.286m132-64.286h66m-66 0v64.286m66-64.286h66m-66 0v64.286m66-64.286h66m-66 0v64.286m66-64.286h66m-66 0v64.286m66-64.286h66m-66 0v64.286m66-64.286h66m-66 0v64.286m66-64.286h66m-66 0v64.286m66-64.286h66m-66 0v64.286m66-64.286h66m-66 0v64.286m66-64.286h66m-66 0v64.286m66-64.286h66m-66 0v64.286m66-64.286h66m-66 0v64.286m66-64.286h66m-66 0v64.286m66-64.286h66m-66 0v64.286m66-64.286h66m-66 0v64.286m66-64.286h66m-66 0v64.286m66-64.286h66m-66 0v64.286m66-64.286h66m-66 0v64.286m66-64.286v64.286m0-64.286h66M67 450.998H1m66 0h66m-66 0v64.285M1 450.998v64.285m132-64.285h66m-66 0v64.285m66-64.285h66m-66 0v64.285m66-64.285h66m-66 0v64.285m66-64.285h66m-66 0v64.285m66-64.285h66m-66 0v64.285m66-64.285h66m-66 0v64.285m66-64.285h66m-66 0v64.285m66-64.285h66m-66 0v64.285m66-64.285h66m-66 0v64.285m66-64.285h66m-66 0v64.285m66-64.285h66m-66 0v64.285m66-64.285h66m-66 0v64.285m66-64.285h66m-66 0v64.285m66-64.285h66m-66 0v64.285m66-64.285h66m-66 0v64.285m66-64.285h66m-66 0v64.285m66-64.285h66m-66 0v64.285m66-64.285h66m-66 0v64.285m66-64.285v64.285m0-64.285h66M67 515.283H1m66 0h66m-66 0v64.286M1 515.283v64.286m132-64.286h66m-66 0v64.286m66-64.286h66m-66 0v64.286m66-64.286h66m-66 0v64.286m66-64.286h66m-66 0v64.286m66-64.286h66m-66 0v64.286m66-64.286h66m-66 0v64.286m66-64.286h66m-66 0v64.286m66-64.286h66m-66 0v64.286m66-64.286h66m-66 0v64.286m66-64.286h66m-66 0v64.286m66-64.286h66m-66 0v64.286m66-64.286h66m-66 0v64.286m66-64.286h66m-66 0v64.286m66-64.286h66m-66 0v64.286m66-64.286h66m-66 0v64.286m66-64.286h66m-66 0v64.286m66-64.286h66m-66 0v64.286m66-64.286h66m-66 0v64.286m66-64.286v64.286m0-64.286h66M67 579.569H1m66 0h66m-66 0v64.285M1 579.569v64.285h66m66-64.285h66m-66 0v64.285m66-64.285h66m-66 0v64.285m66-64.285h66m-66 0v64.285m66-64.285h66m-66 0v64.285m66-64.285h66m-66 0v64.285m66-64.285h66m-66 0v64.285m66-64.285h66m-66 0v64.285m66-64.285h66m-66 0v64.285m66-64.285h66m-66 0v64.285m66-64.285h66m-66 0v64.285m66-64.285h66m-66 0v64.285m66-64.285h66m-66 0v64.285m66-64.285h66m-66 0v64.285m66-64.285h66m-66 0v64.285m66-64.285h66m-66 0v64.285m66-64.285h66m-66 0v64.285m66-64.285h66m-66 0v64.285m66-64.285h66m-66 0v64.285m66-64.285v64.285m0-64.285h66M67 643.854h66m0 0h66m0 0h66m0 0h66m0 0h66m0 0h66m0 0h66m0 0h66m0 0h66m0 0h66m0 0h66m0 0h66m0 0h66m0 0h66m0 0h66m0 0h66m0 0h66m0 0h66m0 0h66m0 0h66M1387 1v64.285M1387 1h66m-66 64.285h66m-66 0v64.286M1453 1v64.285M1453 1h66m-66 64.285h66m-66 0v64.286M1519 1v64.285M1519 1h66m-66 64.285h66m-66 0v64.286M1585 1v64.285M1585 1h66m-66 64.285h66m-66 0v64.286M1651 1v64.285M1651 1h66m-66 64.285h66m-66 0v64.286M1717 1v64.285M1717 1h66m-66 64.285h66m-66 0v64.286M1783 1v64.285M1783 1h66m-66 64.285h66m-66 0v64.286M1849 1v64.285M1849 1h66m-66 64.285h66m-66 0v64.286M1915 1v64.285M1915 1h66m-66 64.285h66m-66 0v64.286M1981 1v64.285M1981 1h66m-66 64.285h66m-66 0v64.286M2047 1v64.285M2047 1h66m-66 64.285h66m-66 0v64.286M2113 1v64.285M2113 1h66m-66 64.285h66m-66 0v64.286M2179 1v64.285M2179 1h66m-66 64.285h66m-66 0v64.286M2245 1v64.285M2245 1h66m-66 64.285h66m-66 0v64.286M2311 1v64.285M2311 1h66m-66 64.285h66m-66 0v64.286M2377 1v64.285M2377 1h66m-66 64.285h66m-66 0v64.286M2443 1v64.285M2443 1h66m-66 64.285h66m-66 0v64.286M2509 1v64.285M2509 1h66m-66 64.285h66m-66 0v64.286M2575 1v64.285M2575 1h66v64.285m-66 0h66m-66 0v64.286m66-64.286v64.286m-1254 0h66m-66 0v64.285m66-64.285h66m-66 0v64.285m66-64.285h66m-66 0v64.285m66-64.285h66m-66 0v64.285m66-64.285h66m-66 0v64.285m66-64.285h66m-66 0v64.285m66-64.285h66m-66 0v64.285m66-64.285h66m-66 0v64.285m66-64.285h66m-66 0v64.285m66-64.285h66m-66 0v64.285m66-64.285h66m-66 0v64.285m66-64.285h66m-66 0v64.285m66-64.285h66m-66 0v64.285m66-64.285h66m-66 0v64.285m66-64.285h66m-66 0v64.285m66-64.285h66m-66 0v64.285m66-64.285h66m-66 0v64.285m66-64.285h66m-66 0v64.285m66-64.285h66m-66 0v64.285m66-64.285v64.285m-1254 0h66m-66 0v64.286m66-64.286h66m-66 0v64.286m66-64.286h66m-66 0v64.286m66-64.286h66m-66 0v64.286m66-64.286h66m-66 0v64.286m66-64.286h66m-66 0v64.286m66-64.286h66m-66 0v64.286m66-64.286h66m-66 0v64.286m66-64.286h66m-66 0v64.286m66-64.286h66m-66 0v64.286m66-64.286h66m-66 0v64.286m66-64.286h66m-66 0v64.286m66-64.286h66m-66 0v64.286m66-64.286h66m-66 0v64.286m66-64.286h66m-66 0v64.286m66-64.286h66m-66 0v64.286m66-64.286h66m-66 0v64.286m66-64.286h66m-66 0v64.286m66-64.286h66m-66 0v64.286m66-64.286v64.286m-1254 0h66m-66 0v64.285m66-64.285h66m-66 0v64.285m66-64.285h66m-66 0v64.285m66-64.285h66m-66 0v64.285m66-64.285h66m-66 0v64.285m66-64.285h66m-66 0v64.285m66-64.285h66m-66 0v64.285m66-64.285h66m-66 0v64.285m66-64.285h66m-66 0v64.285m66-64.285h66m-66 0v64.285m66-64.285h66m-66 0v64.285m66-64.285h66m-66 0v64.285m66-64.285h66m-66 0v64.285m66-64.285h66m-66 0v64.285m66-64.285h66m-66 0v64.285m66-64.285h66m-66 0v64.285m66-64.285h66m-66 0v64.285m66-64.285h66m-66 0v64.285m66-64.285h66m-66 0v64.285m66-64.285v64.285m-1254 0h66m-66 0v64.285m66-64.285h66m-66 0v64.285m66-64.285h66m-66 0v64.285m66-64.285h66m-66 0v64.285m66-64.285h66m-66 0v64.285m66-64.285h66m-66 0v64.285m66-64.285h66m-66 0v64.285m66-64.285h66m-66 0v64.285m66-64.285h66m-66 0v64.285m66-64.285h66m-66 0v64.285m66-64.285h66m-66 0v64.285m66-64.285h66m-66 0v64.285m66-64.285h66m-66 0v64.285m66-64.285h66m-66 0v64.285m66-64.285h66m-66 0v64.285m66-64.285h66m-66 0v64.285m66-64.285h66m-66 0v64.285m66-64.285h66m-66 0v64.285m66-64.285h66m-66 0v64.285m66-64.285v64.285m-1254 0h66m-66 0v64.286m66-64.286h66m-66 0v64.286m66-64.286h66m-66 0v64.286m66-64.286h66m-66 0v64.286m66-64.286h66m-66 0v64.286m66-64.286h66m-66 0v64.286m66-64.286h66m-66 0v64.286m66-64.286h66m-66 0v64.286m66-64.286h66m-66 0v64.286m66-64.286h66m-66 0v64.286m66-64.286h66m-66 0v64.286m66-64.286h66m-66 0v64.286m66-64.286h66m-66 0v64.286m66-64.286h66m-66 0v64.286m66-64.286h66m-66 0v64.286m66-64.286h66m-66 0v64.286m66-64.286h66m-66 0v64.286m66-64.286h66m-66 0v64.286m66-64.286h66m-66 0v64.286m66-64.286v64.286m-1254 0h66m-66 0v64.285m66-64.285h66m-66 0v64.285m66-64.285h66m-66 0v64.285m66-64.285h66m-66 0v64.285m66-64.285h66m-66 0v64.285m66-64.285h66m-66 0v64.285m66-64.285h66m-66 0v64.285m66-64.285h66m-66 0v64.285m66-64.285h66m-66 0v64.285m66-64.285h66m-66 0v64.285m66-64.285h66m-66 0v64.285m66-64.285h66m-66 0v64.285m66-64.285h66m-66 0v64.285m66-64.285h66m-66 0v64.285m66-64.285h66m-66 0v64.285m66-64.285h66m-66 0v64.285m66-64.285h66m-66 0v64.285m66-64.285h66m-66 0v64.285m66-64.285h66m-66 0v64.285m66-64.285v64.285m-1254 0h66m-66 0v64.286m66-64.286h66m-66 0v64.286m66-64.286h66m-66 0v64.286m66-64.286h66m-66 0v64.286m66-64.286h66m-66 0v64.286m66-64.286h66m-66 0v64.286m66-64.286h66m-66 0v64.286m66-64.286h66m-66 0v64.286m66-64.286h66m-66 0v64.286m66-64.286h66m-66 0v64.286m66-64.286h66m-66 0v64.286m66-64.286h66m-66 0v64.286m66-64.286h66m-66 0v64.286m66-64.286h66m-66 0v64.286m66-64.286h66m-66 0v64.286m66-64.286h66m-66 0v64.286m66-64.286h66m-66 0v64.286m66-64.286h66m-66 0v64.286m66-64.286h66m-66 0v64.286m66-64.286v64.286m-1254 0h66m-66 0v64.285m66-64.285h66m-66 0v64.285m66-64.285h66m-66 0v64.285m66-64.285h66m-66 0v64.285m66-64.285h66m-66 0v64.285m66-64.285h66m-66 0v64.285m66-64.285h66m-66 0v64.285m66-64.285h66m-66 0v64.285m66-64.285h66m-66 0v64.285m66-64.285h66m-66 0v64.285m66-64.285h66m-66 0v64.285m66-64.285h66m-66 0v64.285m66-64.285h66m-66 0v64.285m66-64.285h66m-66 0v64.285m66-64.285h66m-66 0v64.285m66-64.285h66m-66 0v64.285m66-64.285h66m-66 0v64.285m66-64.285h66m-66 0v64.285m66-64.285h66m-66 0v64.285m66-64.285v64.285h-66m-1188 0h66m0 0h66m0 0h66m0 0h66m0 0h66m0 0h66m0 0h66m0 0h66m0 0h66m0 0h66m0 0h66m0 0h66m0 0h66m0 0h66m0 0h66m0 0h66m0 0h66m0 0h66"/><defs><radialGradient id="a" cx="0" cy="0" r="1" gradientTransform="matrix(-1.0008 -916.00045 4688.1272 -5.12214 1380.5 676)" gradientUnits="userSpaceOnUse"><stop stop-color="#310099" stop-opacity="0"/><stop offset=".215" stop-color="#310099" stop-opacity="0"/><stop offset="1" stop-color="#5100FF" stop-opacity=".15"/></radialGradient></defs></svg>