<svg xmlns="http://www.w3.org/2000/svg" width="128" height="128" fill="none"><path stroke="#fff" stroke-width="2.1" d="M59.2 4.1a10 10 0 0 1 9.8 0l44.5 25.7c3 1.8 5 5 5 8.5v51.5c0 3.5-2 6.7-5 8.5L69 124a9.8 9.8 0 0 1-9.8 0L14.6 98.3a10 10 0 0 1-4.9-8.5V38.3c0-3.5 1.9-6.7 5-8.5L59.1 4.1Z"/><path fill="#C8C8C8" d="M34.8 49c-11.9-.8-17.6 7.6-17.6 10l11.1 18.5 58 12.4c14.4-17.1 13.9-38.2 9-36.3C66 65.1 49.6 49.8 34.8 49Z"/><path fill="#fff" fill-rule="evenodd" d="M17.2 89.8V59c0-1.3.9-2.4 2.1-2 1.3.4 2.9 1.3 4.8 2.3 3.5 1.8 8 4.1 13.9 5.8 18 6 37.6-3 43.3-5.8l3.2-1.9c4.4-2.5 17-8.7 25.4-.6.5.5.8 1.2.8 2v31c0 2.2-1.2 4.3-3.1 5.4L67 118.7a6.2 6.2 0 0 1-6.2 0L20.3 95.2a6.2 6.2 0 0 1-3.1-5.4Z" clip-rule="evenodd"/></svg>